# xmcd
#
# Track frame offsets:
# 150
# 45175
# 77203
# 113408
# 142651
#
# Disc length: 2711 seconds
#
#
# Revision: 0
# Processed by: cddbd v1.5.2PL0 Copyright (c) Steve Scherf et al.
# Submitted via: Nero 7, 11, 10, 0 
#
DISCID=2b0a9505
DTITLE=Johnny Winter - Central Park New York 1980 - CD 1
DYEAR=1980
DGENRE=Blues
TTITLE0=Hideaway
TTITLE1=Messin' With The Kid
TTITLE2=Bony Maronie
TTITLE3=Mother-in-Law Blues
TTITLE4=Sweet Papa John
EXTD=
EXTT0=Hideaway
EXTT1=Messin' With The Kid
EXTT2=Bony Maronie
EXTT3=Mother-in-Law Blues
EXTT4=Sweet Papa John
PLAYORDER=
